  0
SECTION
  2
HEADER
  9
$ACADVER
  1
AC1014
  9
$HANDSEED
  5
FFFF
  9
$MEASUREMENT
 70
     1
  0
ENDSEC
  0
SECTION
  2
TABLES
  0
TABLE
  2
VPORT
  5
8
330
0
100
AcDbSymbolTable
 70
     4
  0
VPORT
  5
2E
330
8
100
AcDbSymbolTableRecord
100
AcDbViewportTableRecord
  2
*ACTIVE
 70
     0
 10
0.0
 20
0.0
 11
1.0
 21
1.0
 12
210.0
 22
148.5
 13
0.0
 23
0.0
 14
10.0
 24
10.0
 15
10.0
 25
10.0
 16
0.0
 26
0.0
 36
1.0
 17
0.0
 27
0.0
 37
0.0
 40
341.0
 41
1.24
 42
50.0
 43
0.0
 44
0.0
 50
0.0
 51
0.0
 71
     0
 72
   100
 73
     1
 74
     3
 75
     0
 76
     0
 77
     0
 78
     0
  0
ENDTAB
  0
TABLE
  2
LTYPE
  5
5
330
0
100
AcDbSymbolTable
 70
     1
  0
LTYPE
  5
14
330
5
100
AcDbSymbolTableRecord
100
AcDbLinetypeTableRecord
  2
BYBLOCK
 70
     0
  3

 72
    65
 73
     0
 40
0.0
  0
LTYPE
  5
15
330
5
100
AcDbSymbolTableRecord
100
AcDbLinetypeTableRecord
  2
BYLAYER
 70
     0
  3

 72
    65
 73
     0
 40
0.0
  0
LTYPE
  5
16
330
5
100
AcDbSymbolTableRecord
100
AcDbLinetypeTableRecord
  2
CONTINUOUS
 70
     0
  3
Solid line
 72
    65
 73
     0
 40
0.0
  0
ENDTAB
  0
TABLE
  2
LAYER
  5
2
100
AcDbSymbolTable
 70
2
  0
LAYER
  5
50
100
AcDbSymbolTableRecord
100
AcDbLayerTableRecord
  2
0
 70
0
  6
CONTINUOUS
  0
LAYER
  5
51
100
AcDbSymbolTableRecord
100
AcDbLayerTableRecord
  2
Layer_1
 70
0
  6
CONTINUOUS
  0
ENDTAB
  0
TABLE
  2
STYLE
  5
3
330
0
100
AcDbSymbolTable
 70
     1
  0
STYLE
  5
11
330
3
100
AcDbSymbolTableRecord
100
AcDbTextStyleTableRecord
  2
STANDARD
 70
     0
 40
0.0
 41
1.0
 50
0.0
 71
     0
 42
2.5
  3
txt
  4

  0
ENDTAB
  0
TABLE
  2
VIEW
  5
6
330
0
100
AcDbSymbolTable
 70
     0
  0
ENDTAB
  0
TABLE
  2
UCS
  5
7
330
0
100
AcDbSymbolTable
 70
     0
  0
ENDTAB
  0
TABLE
  2
APPID
  5
9
330
0
100
AcDbSymbolTable
 70
     2
  0
APPID
  5
12
330
9
100
AcDbSymbolTableRecord
100
AcDbRegAppTableRecord
  2
ACAD
 70
     0
  0
ENDTAB
  0
TABLE
  2
DIMSTYLE
  5
A
330
0
100
AcDbSymbolTable
 70
     1
  0
DIMSTYLE
105
27
330
A
100
AcDbSymbolTableRecord
100
AcDbDimStyleTableRecord
  2
ISO-25
 70
     0
  3

  4

  5

  6

  7

 40
1.0
 41
2.5
 42
0.625
 43
3.75
 44
1.25
 45
0.0
 46
0.0
 47
0.0
 48
0.0
140
2.5
141
2.5
142
0.0
143
0.03937007874016
144
1.0
145
0.0
146
1.0
147
0.625
 71
     0
 72
     0
 73
     0
 74
     0
 75
     0
 76
     0
 77
     1
 78
     8
170
     0
171
     3
172
     1
173
     0
174
     0
175
     0
176
     0
177
     0
178
     0
270
     2
271
     2
272
     2
273
     2
274
     3
340
11
275
     0
280
     0
281
     0
282
     0
283
     0
284
     8
285
     0
286
     0
287
     3
288
     0
  0
ENDTAB
  0
TABLE
  2
BLOCK_RECORD
  5
1
330
0
100
AcDbSymbolTable
 70
     1
  0
BLOCK_RECORD
  5
1F
330
1
100
AcDbSymbolTableRecord
100
AcDbBlockTableRecord
  2
*MODEL_SPACE
  0
BLOCK_RECORD
  5
1B
330
1
100
AcDbSymbolTableRecord
100
AcDbBlockTableRecord
  2
*PAPER_SPACE
  0
ENDTAB
  0
ENDSEC
  0
SECTION
  2
BLOCKS
  0
BLOCK
  5
20
330
1F
100
AcDbEntity
  8
0
100
AcDbBlockBegin
  2
*MODEL_SPACE
 70
     0
 10
0.0
 20
0.0
 30
0.0
  3
*MODEL_SPACE
  1

  0
ENDBLK
  5
21
330
1F
100
AcDbEntity
  8
0
100
AcDbBlockEnd
  0
BLOCK
  5
1C
330
1B
100
AcDbEntity
 67
     1
  8
0
100
AcDbBlockBegin
  2
*PAPER_SPACE
  1

  0
ENDBLK
  5
1D
330
1B
100
AcDbEntity
 67
     1
  8
0
100
AcDbBlockEnd
  0
ENDSEC
  0
SECTION
  2
ENTITIES
  0
SPLINE
  5
100
100
AcDbEntity
  8
Layer_1
 62
7
100
AcDbSpline
 70
8
 71
3
 72
8
 73
4
 74
0
 40
0
 40
0
 40
0
 40
0
 40
1
 40
1
 40
1
 40
1
 10
378.129432
 20
459.481920
 30
0.0
 10
378.129428
 20
469.541662
 30
0.0
 10
374.533326
 20
479.601250
 30
0.0
 10
367.342181
 20
487.567920
 30
0.0
  0
SPLINE
  5
101
100
AcDbEntity
  8
Layer_1
 62
7
100
AcDbSpline
 70
8
 71
3
 72
8
 73
4
 74
0
 40
0
 40
0
 40
0
 40
0
 40
1
 40
1
 40
1
 40
1
 10
367.342181
 20
487.567920
 30
0.0
 10
349.093247
 20
506.322369
 30
0.0
 10
323.934197
 20
516.925940
 30
0.0
 10
297.638308
 20
516.945419
 30
0.0
  0
SPLINE
  5
102
100
AcDbEntity
  8
Layer_1
 62
7
100
AcDbSpline
 70
8
 71
3
 72
8
 73
4
 74
0
 40
0
 40
0
 40
0
 40
0
 40
1
 40
1
 40
1
 40
1
 10
297.638308
 20
516.945419
 30
0.0
 10
272.956255
 20
516.936852
 30
0.0
 10
249.207510
 20
507.599855
 30
0.0
 10
231.237434
 20
490.839419
 30
0.0
  0
SPLINE
  5
103
100
AcDbEntity
  8
Layer_1
 62
7
100
AcDbSpline
 70
8
 71
3
 72
8
 73
4
 74
0
 40
0
 40
0
 40
0
 40
0
 40
1
 40
1
 40
1
 40
1
 10
231.237434
 20
490.839419
 30
0.0
 10
247.712840
 20
505.505984
 30
0.0
 10
272.971214
 20
504.946042
 30
0.0
 10
288.768808
 20
489.148170
 30
0.0
  0
SPLINE
  5
104
100
AcDbEntity
  8
Layer_1
 62
7
100
AcDbSpline
 70
8
 71
3
 72
8
 73
4
 74
0
 40
0
 40
0
 40
0
 40
0
 40
1
 40
1
 40
1
 40
1
 10
365.841057
 20
429.815670
 30
0.0
 10
374.033171
 20
438.007786
 30
0.0
 10
378.129436
 20
448.744852
 30
0.0
 10
378.129432
 20
459.481920
 30
0.0
  0
LWPOLYLINE
  5
105
100
AcDbEntity
  8
Layer_1
 62
7
100
AcDbPolyline
 90
4
 70
0
 10
288.768808
 20
489.148170
 30
0.0
 10
297.639058
 20
480.277920
 30
0.0
 10
356.970807
 20
420.945420
 30
0.0
 10
365.841057
 20
429.815670
 30
0.0
  0
SPLINE
  5
106
100
AcDbEntity
  8
Layer_1
 62
7
100
AcDbSpline
 70
8
 71
3
 72
8
 73
4
 74
0
 40
0
 40
0
 40
0
 40
0
 40
1
 40
1
 40
1
 40
1
 10
336.174931
 20
340.454481
 30
0.0
 10
346.234673
 20
340.454485
 30
0.0
 10
356.294261
 20
344.050587
 30
0.0
 10
364.260930
 20
351.241732
 30
0.0
  0
SPLINE
  5
107
100
AcDbEntity
  8
Layer_1
 62
7
100
AcDbSpline
 70
8
 71
3
 72
8
 73
4
 74
0
 40
0
 40
0
 40
0
 40
0
 40
1
 40
1
 40
1
 40
1
 10
364.260930
 20
351.241732
 30
0.0
 10
383.015380
 20
369.490665
 30
0.0
 10
393.618951
 20
394.649715
 30
0.0
 10
393.638430
 20
420.945605
 30
0.0
  0
SPLINE
  5
108
100
AcDbEntity
  8
Layer_1
 62
7
100
AcDbSpline
 70
8
 71
3
 72
8
 73
4
 74
0
 40
0
 40
0
 40
0
 40
0
 40
1
 40
1
 40
1
 40
1
 10
393.638430
 20
420.945605
 30
0.0
 10
393.629863
 20
445.627658
 30
0.0
 10
384.292866
 20
469.376402
 30
0.0
 10
367.532430
 20
487.346479
 30
0.0
  0
SPLINE
  5
109
100
AcDbEntity
  8
Layer_1
 62
7
100
AcDbSpline
 70
8
 71
3
 72
8
 73
4
 74
0
 40
0
 40
0
 40
0
 40
0
 40
1
 40
1
 40
1
 40
1
 10
367.532430
 20
487.346479
 30
0.0
 10
382.198995
 20
470.871073
 30
0.0
 10
381.639052
 20
445.612699
 30
0.0
 10
365.841180
 20
429.815104
 30
0.0
  0
LWPOLYLINE
  5
10a
100
AcDbEntity
  8
Layer_1
 62
7
100
AcDbPolyline
 90
1
 70
1
 10
378.129432
 20
459.481920
 30
0.0
  0
SPLINE
  5
10b
100
AcDbEntity
  8
Layer_1
 62
7
100
AcDbSpline
 70
8
 71
3
 72
8
 73
4
 74
0
 40
0
 40
0
 40
0
 40
0
 40
1
 40
1
 40
1
 40
1
 10
306.508681
 20
352.742855
 30
0.0
 10
314.700797
 20
344.550741
 30
0.0
 10
325.437863
 20
340.454477
 30
0.0
 10
336.174931
 20
340.454481
 30
0.0
  0
LWPOLYLINE
  5
10c
100
AcDbEntity
  8
Layer_1
 62
7
100
AcDbPolyline
 90
4
 70
0
 10
365.841180
 20
429.815104
 30
0.0
 10
356.970930
 20
420.944854
 30
0.0
 10
297.638431
 20
361.613105
 30
0.0
 10
306.508681
 20
352.742855
 30
0.0
  0
SPLINE
  5
10d
100
AcDbEntity
  8
Layer_1
 62
7
100
AcDbSpline
 70
8
 71
3
 72
8
 73
4
 74
0
 40
0
 40
0
 40
0
 40
0
 40
1
 40
1
 40
1
 40
1
 10
217.147496
 20
382.408985
 30
0.0
 10
217.147500
 20
372.349243
 30
0.0
 10
220.743602
 20
362.289654
 30
0.0
 10
227.934747
 20
354.322985
 30
0.0
  0
SPLINE
  5
10e
100
AcDbEntity
  8
Layer_1
 62
7
100
AcDbSpline
 70
8
 71
3
 72
8
 73
4
 74
0
 40
0
 40
0
 40
0
 40
0
 40
1
 40
1
 40
1
 40
1
 10
227.934747
 20
354.322985
 30
0.0
 10
246.183680
 20
335.568535
 30
0.0
 10
271.342730
 20
324.964964
 30
0.0
 10
297.638620
 20
324.945486
 30
0.0
  0
SPLINE
  5
10f
100
AcDbEntity
  8
Layer_1
 62
7
100
AcDbSpline
 70
8
 71
3
 72
8
 73
4
 74
0
 40
0
 40
0
 40
0
 40
0
 40
1
 40
1
 40
1
 40
1
 10
297.638620
 20
324.945486
 30
0.0
 10
322.320673
 20
324.954053
 30
0.0
 10
346.069417
 20
334.291050
 30
0.0
 10
364.039494
 20
351.051485
 30
0.0
  0
SPLINE
  5
110
100
AcDbEntity
  8
Layer_1
 62
7
100
AcDbSpline
 70
8
 71
3
 72
8
 73
4
 74
0
 40
0
 40
0
 40
0
 40
0
 40
1
 40
1
 40
1
 40
1
 10
364.039494
 20
351.051485
 30
0.0
 10
347.564088
 20
336.384921
 30
0.0
 10
322.305714
 20
336.944863
 30
0.0
 10
306.508119
 20
352.742735
 30
0.0
  0
LWPOLYLINE
  5
111
100
AcDbEntity
  8
Layer_1
 62
7
100
AcDbPolyline
 90
1
 70
1
 10
336.174931
 20
340.454481
 30
0.0
  0
SPLINE
  5
112
100
AcDbEntity
  8
Layer_1
 62
7
100
AcDbSpline
 70
8
 71
3
 72
8
 73
4
 74
0
 40
0
 40
0
 40
0
 40
0
 40
1
 40
1
 40
1
 40
1
 10
229.435870
 20
412.075235
 30
0.0
 10
221.243756
 20
403.883119
 30
0.0
 10
217.147492
 20
393.146053
 30
0.0
 10
217.147496
 20
382.408985
 30
0.0
  0
LWPOLYLINE
  5
113
100
AcDbEntity
  8
Layer_1
 62
7
100
AcDbPolyline
 90
4
 70
0
 10
306.508119
 20
352.742735
 30
0.0
 10
297.637869
 20
361.612985
 30
0.0
 10
238.306120
 20
420.945485
 30
0.0
 10
229.435870
 20
412.075235
 30
0.0
  0
SPLINE
  5
114
100
AcDbEntity
  8
Layer_1
 62
7
100
AcDbSpline
 70
8
 71
3
 72
8
 73
4
 74
0
 40
0
 40
0
 40
0
 40
0
 40
1
 40
1
 40
1
 40
1
 10
259.101993
 20
501.436421
 30
0.0
 10
249.042251
 20
501.436417
 30
0.0
 10
238.982662
 20
497.840315
 30
0.0
 10
231.015993
 20
490.649170
 30
0.0
  0
SPLINE
  5
115
100
AcDbEntity
  8
Layer_1
 62
7
100
AcDbSpline
 70
8
 71
3
 72
8
 73
4
 74
0
 40
0
 40
0
 40
0
 40
0
 40
1
 40
1
 40
1
 40
1
 10
231.015993
 20
490.649170
 30
0.0
 10
212.261543
 20
472.400237
 30
0.0
 10
201.657972
 20
447.241187
 30
0.0
 10
201.638494
 20
420.945297
 30
0.0
  0
SPLINE
  5
116
100
AcDbEntity
  8
Layer_1
 62
7
100
AcDbSpline
 70
8
 71
3
 72
8
 73
4
 74
0
 40
0
 40
0
 40
0
 40
0
 40
1
 40
1
 40
1
 40
1
 10
201.638494
 20
420.945297
 30
0.0
 10
201.647061
 20
396.263244
 30
0.0
 10
210.984057
 20
372.514500
 30
0.0
 10
227.744493
 20
354.544423
 30
0.0
  0
SPLINE
  5
117
100
AcDbEntity
  8
Layer_1
 62
7
100
AcDbSpline
 70
8
 71
3
 72
8
 73
4
 74
0
 40
0
 40
0
 40
0
 40
0
 40
1
 40
1
 40
1
 40
1
 10
227.744493
 20
354.544423
 30
0.0
 10
213.077928
 20
371.019829
 30
0.0
 10
213.637871
 20
396.278203
 30
0.0
 10
229.435743
 20
412.075798
 30
0.0
  0
LWPOLYLINE
  5
118
100
AcDbEntity
  8
Layer_1
 62
7
100
AcDbPolyline
 90
1
 70
1
 10
217.147496
 20
382.408985
 30
0.0
  0
SPLINE
  5
119
100
AcDbEntity
  8
Layer_1
 62
7
100
AcDbSpline
 70
8
 71
3
 72
8
 73
4
 74
0
 40
0
 40
0
 40
0
 40
0
 40
1
 40
1
 40
1
 40
1
 10
288.768242
 20
489.148047
 30
0.0
 10
280.576127
 20
497.340161
 30
0.0
 10
269.839061
 20
501.436425
 30
0.0
 10
259.101993
 20
501.436421
 30
0.0
  0
LWPOLYLINE
  5
11a
100
AcDbEntity
  8
Layer_1
 62
7
100
AcDbPolyline
 90
4
 70
0
 10
229.435743
 20
412.075798
 30
0.0
 10
238.305993
 20
420.946048
 30
0.0
 10
297.638493
 20
480.277797
 30
0.0
 10
288.768242
 20
489.148047
 30
0.0
  0
SPLINE
  5
11b
100
AcDbEntity
  8
Layer_1
 62
7
100
AcDbSpline
 70
8
 71
3
 72
8
 73
4
 74
0
 40
0
 40
0
 40
0
 40
0
 40
1
 40
1
 40
1
 40
1
 10
116.030421
 20
761.926738
 30
0.0
 10
77.466497
 20
754.377643
 30
0.0
 10
41.601764
 20
733.043049
 30
0.0
 10
16.458022
 20
699.497469
 30
0.0
  0
SPLINE
  5
11c
100
AcDbEntity
  8
Layer_1
 62
7
100
AcDbSpline
 70
8
 71
3
 72
8
 73
4
 74
0
 40
0
 40
0
 40
0
 40
0
 40
1
 40
1
 40
1
 40
1
 10
16.458022
 20
699.497469
 30
0.0
 10
-41.742528
 20
615.466543
 30
0.0
 10
-63.511245
 20
511.062373
 30
0.0
 10
-43.852816
 20
410.242707
 30
0.0
  0
SPLINE
  5
11d
100
AcDbEntity
  8
Layer_1
 62
7
100
AcDbSpline
 70
8
 71
3
 72
8
 73
4
 74
0
 40
0
 40
0
 40
0
 40
0
 40
1
 40
1
 40
1
 40
1
 10
-43.852816
 20
410.242707
 30
0.0
 10
-25.297942
 20
315.630713
 30
0.0
 10
28.316997
 20
231.596836
 30
0.0
 10
106.053169
 20
175.286165
 30
0.0
  0
SPLINE
  5
11e
100
AcDbEntity
  8
Layer_1
 62
7
100
AcDbSpline
 70
8
 71
3
 72
8
 73
4
 74
0
 40
0
 40
0
 40
0
 40
0
 40
1
 40
1
 40
1
 40
1
 10
106.053169
 20
175.286165
 30
0.0
 10
37.465468
 20
227.438327
 30
0.0
 10
20.657488
 20
324.686263
 30
0.0
 10
69.363573
 20
397.101313
 30
0.0
  0
LWPOLYLINE
  5
11f
100
AcDbEntity
  8
Layer_1
 62
7
100
AcDbPolyline
 90
1
 70
1
 10
259.101993
 20
501.436421
 30
0.0
  0
SPLINE
  5
120
100
AcDbEntity
  8
Layer_1
 62
7
100
AcDbSpline
 70
8
 71
3
 72
8
 73
4
 74
0
 40
0
 40
0
 40
0
 40
0
 40
1
 40
1
 40
1
 40
1
 10
238.977220
 20
737.081661
 30
0.0
 10
201.425252
 20
762.338486
 30
0.0
 10
157.190868
 20
769.984112
 30
0.0
 10
116.030421
 20
761.926738
 30
0.0
  0
LWPOLYLINE
  5
121
100
AcDbEntity
  8
Layer_1
 62
7
100
AcDbPolyline
 90
4
 70
0
 10
69.363573
 20
397.101313
 30
0.0
 10
96.711135
 20
437.761793
 30
0.0
 10
279.637699
 20
709.734098
 30
0.0
 10
238.977220
 20
737.081661
 30
0.0
  0
SPLINE
  5
122
100
AcDbEntity
  8
Layer_1
 62
7
100
AcDbSpline
 70
8
 71
3
 72
8
 73
4
 74
0
 40
0
 40
0
 40
0
 40
0
 40
1
 40
1
 40
1
 40
1
 10
44.917018
 20
789.172558
 30
0.0
 10
8.765352
 20
773.770538
 30
0.0
 10
-21.879939
 20
745.445459
 30
0.0
 10
-39.499713
 20
707.405252
 30
0.0
  0
SPLINE
  5
123
100
AcDbEntity
  8
Layer_1
 62
7
100
AcDbSpline
 70
8
 71
3
 72
8
 73
4
 74
0
 40
0
 40
0
 40
0
 40
0
 40
1
 40
1
 40
1
 40
1
 10
-39.499713
 20
707.405252
 30
0.0
 10
-78.957431
 20
613.110028
 30
0.0
 10
-78.543602
 20
506.461366
 30
0.0
 10
-38.353170
 20
411.932067
 30
0.0
  0
SPLINE
  5
124
100
AcDbEntity
  8
Layer_1
 62
7
100
AcDbSpline
 70
8
 71
3
 72
8
 73
4
 74
0
 40
0
 40
0
 40
0
 40
0
 40
1
 40
1
 40
1
 40
1
 10
-38.353170
 20
411.932067
 30
0.0
 10
-0.532826
 20
323.245345
 30
0.0
 10
69.382125
 20
252.194980
 30
0.0
 10
157.127223
 20
213.277090
 30
0.0
  0
SPLINE
  5
125
100
AcDbEntity
  8
Layer_1
 62
7
100
AcDbSpline
 70
8
 71
3
 72
8
 73
4
 74
0
 40
0
 40
0
 40
0
 40
0
 40
1
 40
1
 40
1
 40
1
 10
157.127223
 20
213.277090
 30
0.0
 10
79.195282
 20
250.029418
 30
0.0
 10
42.535614
 20
341.657680
 30
0.0
 10
75.121421
 20
422.616854
 30
0.0
  0
LWPOLYLINE
  5
126
100
AcDbEntity
  8
Layer_1
 62
7
100
AcDbPolyline
 90
1
 70
1
 10
116.030421
 20
761.926738
 30
0.0
  0
SPLINE
  5
127
100
AcDbEntity
  8
Layer_1
 62
7
100
AcDbSpline
 70
8
 71
3
 72
8
 73
4
 74
0
 40
0
 40
0
 40
0
 40
0
 40
1
 40
1
 40
1
 40
1
 10
170.342719
 20
790.432481
 30
0.0
 10
128.360162
 20
807.329892
 30
0.0
 10
83.502789
 20
805.611598
 30
0.0
 10
44.917018
 20
789.172558
 30
0.0
  0
LWPOLYLINE
  5
128
100
AcDbEntity
  8
Layer_1
 62
7
100
AcDbPolyline
 90
4
 70
0
 10
75.121421
 20
422.616854
 30
0.0
 10
93.417585
 20
468.074683
 30
0.0
 10
215.800548
 20
772.136317
 30
0.0
 10
170.342719
 20
790.432481
 30
0.0
  0
SPLINE
  5
129
100
AcDbEntity
  8
Layer_1
 62
7
100
AcDbSpline
 70
8
 71
3
 72
8
 73
4
 74
0
 40
0
 40
0
 40
0
 40
0
 40
1
 40
1
 40
1
 40
1
 10
-8.584855
 20
799.260291
 30
0.0
 10
-42.037184
 20
778.642173
 30
0.0
 10
-68.118558
 20
746.066018
 30
0.0
 10
-79.871935
 20
705.824599
 30
0.0
  0
SPLINE
  5
12a
100
AcDbEntity
  8
Layer_1
 62
7
100
AcDbSpline
 70
8
 71
3
 72
8
 73
4
 74
0
 40
0
 40
0
 40
0
 40
0
 40
1
 40
1
 40
1
 40
1
 10
-79.871935
 20
705.824599
 30
0.0
 10
-104.834969
 20
606.701708
 30
0.0
 10
-88.530606
 20
501.305903
 30
0.0
 10
-34.700208
 20
413.822491
 30
0.0
  0
SPLINE
  5
12b
100
AcDbEntity
  8
Layer_1
 62
7
100
AcDbSpline
 70
8
 71
3
 72
8
 73
4
 74
0
 40
0
 40
0
 40
0
 40
0
 40
1
 40
1
 40
1
 40
1
 10
-34.700208
 20
413.822491
 30
0.0
 10
15.915783
 20
331.763157
 30
0.0
 10
95.639347
 20
271.926649
 30
0.0
 10
188.204814
 20
246.521167
 30
0.0
  0
SPLINE
  5
12c
100
AcDbEntity
  8
Layer_1
 62
7
100
AcDbSpline
 70
8
 71
3
 72
8
 73
4
 74
0
 40
0
 40
0
 40
0
 40
0
 40
1
 40
1
 40
1
 40
1
 10
188.204814
 20
246.521167
 30
0.0
 10
105.665660
 20
271.247850
 30
0.0
 10
55.758968
 20
356.388859
 30
0.0
 10
75.914479
 20
441.300447
 30
0.0
  0
LWPOLYLINE
  5
12d
100
AcDbEntity
  8
Layer_1
 62
7
100
AcDbPolyline
 90
1
 70
1
 10
44.917018
 20
789.172558
 30
0.0
  0
SPLINE
  5
12e
100
AcDbEntity
  8
Layer_1
 62
7
100
AcDbSpline
 70
8
 71
3
 72
8
 73
4
 74
0
 40
0
 40
0
 40
0
 40
0
 40
1
 40
1
 40
1
 40
1
 10
115.252162
 20
819.199871
 30
0.0
 10
71.220088
 20
829.651377
 30
0.0
 10
27.119834
 20
821.266630
 30
0.0
 10
-8.584855
 20
799.260291
 30
0.0
  0
LWPOLYLINE
  5
12f
100
AcDbEntity
  8
Layer_1
 62
7
100
AcDbPolyline
 90
4
 70
0
 10
75.914479
 20
441.300447
 30
0.0
 10
87.231153
 20
488.977451
 30
0.0
 10
162.929166
 20
807.883198
 30
0.0
 10
115.252162
 20
819.199871
 30
0.0
  0
SPLINE
  5
130
100
AcDbEntity
  8
Layer_1
 62
7
100
AcDbSpline
 70
8
 71
3
 72
8
 73
4
 74
0
 40
0
 40
0
 40
0
 40
0
 40
1
 40
1
 40
1
 40
1
 10
-49.372122
 20
801.524746
 30
0.0
 10
-80.305613
 20
777.290798
 30
0.0
 10
-102.575621
 20
741.999288
 30
0.0
 10
-109.749487
 20
700.694937
 30
0.0
  0
SPLINE
  5
131
100
AcDbEntity
  8
Layer_1
 62
7
100
AcDbSpline
 70
8
 71
3
 72
8
 73
4
 74
0
 40
0
 40
0
 40
0
 40
0
 40
1
 40
1
 40
1
 40
1
 10
-109.749487
 20
700.694937
 30
0.0
 10
-123.457316
 20
599.400336
 30
0.0
 10
-95.454885
 20
496.492747
 30
0.0
 10
-32.167926
 20
415.586505
 30
0.0
  0
SPLINE
  5
132
100
AcDbEntity
  8
Layer_1
 62
7
100
AcDbSpline
 70
8
 71
3
 72
8
 73
4
 74
0
 40
0
 40
0
 40
0
 40
0
 40
1
 40
1
 40
1
 40
1
 10
-32.167926
 20
415.586505
 30
0.0
 10
27.317533
 20
339.710335
 30
0.0
 10
113.239376
 20
289.176274
 30
0.0
 10
208.067323
 20
274.294580
 30
0.0
  0
SPLINE
  5
133
100
AcDbEntity
  8
Layer_1
 62
7
100
AcDbSpline
 70
8
 71
3
 72
8
 73
4
 74
0
 40
0
 40
0
 40
0
 40
0
 40
1
 40
1
 40
1
 40
1
 10
208.067323
 20
274.294580
 30
0.0
 10
123.278647
 20
289.624334
 30
0.0
 10
64.152988
 20
368.642217
 30
0.0
 10
74.674685
 20
455.276601
 30
0.0
  0
LWPOLYLINE
  5
134
100
AcDbEntity
  8
Layer_1
 62
7
100
AcDbPolyline
 90
1
 70
1
 10
-8.584855
 20
799.260291
 30
0.0
  0
SPLINE
  5
135
100
AcDbEntity
  8
Layer_1
 62
7
100
AcDbSpline
 70
8
 71
3
 72
8
 73
4
 74
0
 40
0
 40
0
 40
0
 40
0
 40
1
 40
1
 40
1
 40
1
 10
71.453709
 20
835.204297
 30
0.0
 10
26.528302
 20
840.660057
 30
0.0
 10
-16.355866
 20
827.390371
 30
0.0
 10
-49.372122
 20
801.524746
 30
0.0
  0
LWPOLYLINE
  5
136
100
AcDbEntity
  8
Layer_1
 62
7
100
AcDbPolyline
 90
4
 70
0
 10
74.674685
 20
455.276601
 30
0.0
 10
80.582071
 20
503.920887
 30
0.0
 10
120.097996
 20
829.296911
 30
0.0
 10
71.453709
 20
835.204297
 30
0.0
  0
SPLINE
  5
137
100
AcDbEntity
  8
Layer_1
 62
7
100
AcDbSpline
 70
8
 71
3
 72
8
 73
4
 74
0
 40
0
 40
0
 40
0
 40
0
 40
1
 40
1
 40
1
 40
1
 10
-81.119858
 20
800.118313
 30
0.0
 10
-109.823510
 20
773.280552
 30
0.0
 10
-128.932917
 20
736.182377
 30
0.0
 10
-132.479572
 20
694.409959
 30
0.0
  0
SPLINE
  5
138
100
AcDbEntity
  8
Layer_1
 62
7
100
AcDbSpline
 70
8
 71
3
 72
8
 73
4
 74
0
 40
0
 40
0
 40
0
 40
0
 40
1
 40
1
 40
1
 40
1
 10
-132.479572
 20
694.409959
 30
0.0
 10
-137.306834
 20
592.306100
 30
0.0
 10
-100.441974
 20
492.230678
 30
0.0
 10
-30.344399
 20
417.148130
 30
0.0
  0
SPLINE
  5
139
100
AcDbEntity
  8
Layer_1
 62
7
100
AcDbSpline
 70
8
 71
3
 72
8
 73
4
 74
0
 40
0
 40
0
 40
0
 40
0
 40
1
 40
1
 40
1
 40
1
 10
-30.344399
 20
417.148130
 30
0.0
 10
35.527742
 20
346.745191
 30
0.0
 10
125.526959
 20
303.892008
 30
0.0
 10
221.291081
 20
297.331744
 30
0.0
  0
SPLINE
  5
13a
100
AcDbEntity
  8
Layer_1
 62
7
100
AcDbSpline
 70
8
 71
3
 72
8
 73
4
 74
0
 40
0
 40
0
 40
0
 40
0
 40
1
 40
1
 40
1
 40
1
 10
221.291081
 20
297.331744
 30
0.0
 10
135.488976
 20
305.213343
 30
0.0
 10
69.701448
 20
378.777400
 30
0.0
 10
72.632423
 20
465.999139
 30
0.0
  0
LWPOLYLINE
  5
13b
100
AcDbEntity
  8
Layer_1
 62
7
100
AcDbPolyline
 90
1
 70
1
 10
-49.372122
 20
801.524746
 30
0.0
  0
SPLINE
  5
13c
100
AcDbEntity
  8
Layer_1
 62
7
100
AcDbSpline
 70
8
 71
3
 72
8
 73
4
 74
0
 40
0
 40
0
 40
0
 40
0
 40
1
 40
1
 40
1
 40
1
 10
36.310827
 20
844.200367
 30
0.0
 10
-8.919126
 20
845.719859
 30
0.0
 10
-50.483576
 20
828.763067
 30
0.0
 10
-81.119858
 20
800.118313
 30
0.0
  0
LWPOLYLINE
  5
13d
100
AcDbEntity
  8
Layer_1
 62
7
100
AcDbPolyline
 90
4
 70
0
 10
72.632423
 20
465.999139
 30
0.0
 10
74.277701
 20
514.973181
 30
0.0
 10
85.284870
 20
842.555089
 30
0.0
 10
36.310827
 20
844.200367
 30
0.0
  0
SPLINE
  5
13e
100
AcDbEntity
  8
Layer_1
 62
7
100
AcDbSpline
 70
8
 71
3
 72
8
 73
4
 74
0
 40
0
 40
0
 40
0
 40
0
 40
1
 40
1
 40
1
 40
1
 10
-106.354360
 20
797.003552
 30
0.0
 10
-133.115984
 20
768.228901
 30
0.0
 10
-149.591003
 20
729.888091
 30
0.0
 10
-150.215122
 20
687.970027
 30
0.0
  0
SPLINE
  5
13f
100
AcDbEntity
  8
Layer_1
 62
7
100
AcDbSpline
 70
8
 71
3
 72
8
 73
4
 74
0
 40
0
 40
0
 40
0
 40
0
 40
1
 40
1
 40
1
 40
1
 10
-150.215122
 20
687.970027
 30
0.0
 10
-147.908218
 20
585.778156
 30
0.0
 10
-104.152251
 20
488.518076
 30
0.0
 10
-28.987937
 20
418.508187
 30
0.0
  0
SPLINE
  5
140
100
AcDbEntity
  8
Layer_1
 62
7
100
AcDbSpline
 70
8
 71
3
 72
8
 73
4
 74
0
 40
0
 40
0
 40
0
 40
0
 40
1
 40
1
 40
1
 40
1
 10
-28.987937
 20
418.508187
 30
0.0
 10
41.634804
 20
352.871755
 30
0.0
 10
134.404074
 20
316.400990
 30
0.0
 10
230.392539
 20
316.536874
 30
0.0
  0
SPLINE
  5
141
100
AcDbEntity
  8
Layer_1
 62
7
100
AcDbSpline
 70
8
 71
3
 72
8
 73
4
 74
0
 40
0
 40
0
 40
0
 40
0
 40
1
 40
1
 40
1
 40
1
 10
230.392539
 20
316.536874
 30
0.0
 10
144.249652
 20
318.414021
 30
0.0
 10
73.490810
 20
387.209772
 30
0.0
 10
70.330364
 20
474.423497
 30
0.0
  0
LWPOLYLINE
  5
142
100
AcDbEntity
  8
Layer_1
 62
7
100
AcDbPolyline
 90
1
 70
1
 10
-81.119858
 20
800.118313
 30
0.0
  0
SPLINE
  5
143
100
AcDbEntity
  8
Layer_1
 62
7
100
AcDbSpline
 70
8
 71
3
 72
8
 73
4
 74
0
 40
0
 40
0
 40
0
 40
0
 40
1
 40
1
 40
1
 40
1
 10
7.715260
 20
849.169775
 30
0.0
 10
-37.510509
 20
847.530484
 30
0.0
 10
-77.790865
 20
827.715608
 30
0.0
 10
-106.354360
 20
797.003552
 30
0.0
  0
LWPOLYLINE
  5
144
100
AcDbEntity
  8
Layer_1
 62
7
100
AcDbPolyline
 90
4
 70
0
 10
70.330364
 20
474.423497
 30
0.0
 10
68.555377
 20
523.393010
 30
0.0
 10
56.684772
 20
850.944762
 30
0.0
 10
7.715260
 20
849.169775
 30
0.0
  0
SPLINE
  5
145
100
AcDbEntity
  8
Layer_1
 62
7
100
AcDbSpline
 70
8
 71
3
 72
8
 73
4
 74
0
 40
0
 40
0
 40
0
 40
0
 40
1
 40
1
 40
1
 40
1
 10
-126.798944
 20
793.150515
 30
0.0
 10
-151.874212
 20
762.895003
 30
0.0
 10
-166.133530
 20
723.676184
 30
0.0
 10
-164.363579
 20
681.790853
 30
0.0
  0
SPLINE
  5
146
100
AcDbEntity
  8
Layer_1
 62
7
100
AcDbSpline
 70
8
 71
3
 72
8
 73
4
 74
0
 40
0
 40
0
 40
0
 40
0
 40
1
 40
1
 40
1
 40
1
 10
-164.363579
 20
681.790853
 30
0.0
 10
-156.226426
 20
579.897345
 30
0.0
 10
-106.989359
 20
485.293862
 30
0.0
 10
-27.950849
 20
419.689192
 30
0.0
  0
SPLINE
  5
147
100
AcDbEntity
  8
Layer_1
 62
7
100
AcDbSpline
 70
8
 71
3
 72
8
 73
4
 74
0
 40
0
 40
0
 40
0
 40
0
 40
1
 40
1
 40
1
 40
1
 10
-27.950849
 20
419.689192
 30
0.0
 10
46.303820
 20
358.191575
 30
0.0
 10
141.003865
 20
327.076376
 30
0.0
 10
236.828025
 20
332.691905
 30
0.0
  0
SPLINE
  5
148
100
AcDbEntity
  8
Layer_1
 62
7
100
AcDbSpline
 70
8
 71
3
 72
8
 73
4
 74
0
 40
0
 40
0
 40
0
 40
0
 40
1
 40
1
 40
1
 40
1
 10
236.828025
 20
332.691905
 30
0.0
 10
150.718464
 20
329.648197
 30
0.0
 10
76.147555
 20
394.292211
 30
0.0
 10
68.013336
 20
481.183273
 30
0.0
  0
LWPOLYLINE
  5
149
100
AcDbEntity
  8
Layer_1
 62
7
100
AcDbPolyline
 90
1
 70
1
 10
-106.354360
 20
797.003552
 30
0.0
  0
SPLINE
  5
14a
100
AcDbEntity
  8
Layer_1
 62
7
100
AcDbSpline
 70
8
 71
3
 72
8
 73
4
 74
0
 40
0
 40
0
 40
0
 40
0
 40
1
 40
1
 40
1
 40
1
 10
-15.893467
 20
851.743759
 30
0.0
 10
-60.951892
 20
847.525256
 30
0.0
 10
-100.035346
 20
825.443139
 30
0.0
 10
-126.798944
 20
793.150515
 30
0.0
  0
LWPOLYLINE
  5
14b
100
AcDbEntity
  8
Layer_1
 62
7
100
AcDbPolyline
 90
4
 70
0
 10
68.013336
 20
481.183273
 30
0.0
 10
63.445633
 20
529.971590
 30
0.0
 10
32.894850
 20
856.311461
 30
0.0
 10
-15.893467
 20
851.743759
 30
0.0
  0
SPLINE
  5
14c
100
AcDbEntity
  8
Layer_1
 62
7
100
AcDbSpline
 70
8
 71
3
 72
8
 73
4
 74
0
 40
0
 40
0
 40
0
 40
0
 40
1
 40
1
 40
1
 40
1
 10
-143.645411
 20
789.052223
 30
0.0
 10
-167.252662
 20
757.637850
 30
0.0
 10
-179.629724
 20
717.784966
 30
0.0
 10
-175.868793
 20
676.031294
 30
0.0
  0
SPLINE
  5
14d
100
AcDbEntity
  8
Layer_1
 62
7
100
AcDbSpline
 70
8
 71
3
 72
8
 73
4
 74
0
 40
0
 40
0
 40
0
 40
0
 40
1
 40
1
 40
1
 40
1
 10
-175.868793
 20
676.031294
 30
0.0
 10
-162.892568
 20
574.640375
 30
0.0
 10
-109.209853
 20
482.486838
 30
0.0
 10
-27.139269
 20
420.717279
 30
0.0
  0
SPLINE
  5
14e
100
AcDbEntity
  8
Layer_1
 62
7
100
AcDbSpline
 70
8
 71
3
 72
8
 73
4
 74
0
 40
0
 40
0
 40
0
 40
0
 40
1
 40
1
 40
1
 40
1
 10
-27.139269
 20
420.717279
 30
0.0
 10
49.957471
 20
362.822495
 30
0.0
 10
146.030776
 20
336.248549
 30
0.0
 10
241.479205
 20
346.417215
 30
0.0
  0
SPLINE
  5
14f
100
AcDbEntity
  8
Layer_1
 62
7
100
AcDbSpline
 70
8
 71
3
 72
8
 73
4
 74
0
 40
0
 40
0
 40
0
 40
0
 40
1
 40
1
 40
1
 40
1
 10
241.479205
 20
346.417215
 30
0.0
 10
155.612000
 20
339.279696
 30
0.0
 10
78.049666
 20
400.302265
 30
0.0
 10
65.790217
 20
486.707869
 30
0.0
  0
LWPOLYLINE
  5
150
100
AcDbEntity
  8
Layer_1
 62
7
100
AcDbPolyline
 90
1
 70
1
 10
-126.798944
 20
793.150515
 30
0.0
  0
SPLINE
  5
151
100
AcDbEntity
  8
Layer_1
 62
7
100
AcDbSpline
 70
8
 71
3
 72
8
 73
4
 74
0
 40
0
 40
0
 40
0
 40
0
 40
1
 40
1
 40
1
 40
1
 10
-35.653529
 20
852.856198
 30
0.0
 10
-80.460195
 20
846.498507
 30
0.0
 10
-118.448672
 20
822.581734
 30
0.0
 10
-143.645411
 20
789.052223
 30
0.0
  0
LWPOLYLINE
  5
152
100
AcDbEntity
  8
Layer_1
 62
7
100
AcDbPolyline
 90
4
 70
0
 10
65.790217
 20
486.707869
 30
0.0
 10
58.906246
 20
535.223587
 30
0.0
 10
12.862189
 20
859.740168
 30
0.0
 10
-35.653529
 20
852.856198
 30
0.0
  0
SPLINE
  5
153
100
AcDbEntity
  8
Layer_1
 62
7
100
AcDbSpline
 70
8
 71
3
 72
8
 73
4
 74
0
 40
0
 40
0
 40
0
 40
0
 40
1
 40
1
 40
1
 40
1
 10
-157.734394
 20
784.961542
 30
0.0
 10
-180.057569
 20
752.622079
 30
0.0
 10
-190.819877
 20
712.303144
 30
0.0
 10
-185.380746
 20
670.734773
 30
0.0
  0
SPLINE
  5
154
100
AcDbEntity
  8
Layer_1
 62
7
100
AcDbSpline
 70
8
 71
3
 72
8
 73
4
 74
0
 40
0
 40
0
 40
0
 40
0
 40
1
 40
1
 40
1
 40
1
 10
-185.380746
 20
670.734773
 30
0.0
 10
-168.332443
 20
569.948587
 30
0.0
 10
-110.982617
 20
480.031377
 30
0.0
 10
-26.491386
 20
421.616566
 30
0.0
  0
SPLINE
  5
155
100
AcDbEntity
  8
Layer_1
 62
7
100
AcDbSpline
 70
8
 71
3
 72
8
 73
4
 74
0
 40
0
 40
0
 40
0
 40
0
 40
1
 40
1
 40
1
 40
1
 10
-26.491386
 20
421.616566
 30
0.0
 10
52.874013
 20
366.873112
 30
0.0
 10
149.939424
 20
344.189201
 30
0.0
 10
244.900989
 20
358.192941
 30
0.0
  0
SPLINE
  5
156
100
AcDbEntity
  8
Layer_1
 62
7
100
AcDbSpline
 70
8
 71
3
 72
8
 73
4
 74
0
 40
0
 40
0
 40
0
 40
0
 40
1
 40
1
 40
1
 40
1
 10
244.900989
 20
358.192941
 30
0.0
 10
159.390825
 20
347.603687
 30
0.0
 10
79.434266
 20
405.453642
 30
0.0
 10
63.705556
 20
491.295529
 30
0.0
  0
LWPOLYLINE
  5
157
100
AcDbEntity
  8
Layer_1
 62
7
100
AcDbPolyline
 90
1
 70
1
 10
-143.645411
 20
789.052223
 30
0.0
  0
SPLINE
  5
158
100
AcDbEntity
  8
Layer_1
 62
7
100
AcDbSpline
 70
8
 71
3
 72
8
 73
4
 74
0
 40
0
 40
0
 40
0
 40
0
 40
1
 40
1
 40
1
 40
1
 10
-52.399225
 20
853.062164
 30
0.0
 10
-96.913553
 20
844.905447
 30
0.0
 10
-133.908188
 20
819.478430
 30
0.0
 10
-157.734394
 20
784.961542
 30
0.0
  0
LWPOLYLINE
  5
159
100
AcDbEntity
  8
Layer_1
 62
7
100
AcDbPolyline
 90
4
 70
0
 10
63.705556
 20
491.295529
 30
0.0
 10
54.873637
 20
539.494708
 30
0.0
 10
-4.200047
 20
861.894084
 30
0.0
 10
-52.399225
 20
853.062164
 30
0.0
  0
SPLINE
  5
15a
100
AcDbEntity
  8
Layer_1
 62
7
100
AcDbSpline
 70
8
 71
3
 72
8
 73
4
 74
0
 40
0
 40
0
 40
0
 40
0
 40
1
 40
1
 40
1
 40
1
 10
-169.671344
 20
781.006082
 30
0.0
 10
-190.864984
 20
747.915379
 30
0.0
 10
-200.229226
 20
707.248994
 30
0.0
 10
-193.358555
 20
665.893130
 30
0.0
  0
SPLINE
  5
15b
100
AcDbEntity
  8
Layer_1
 62
7
100
AcDbSpline
 70
8
 71
3
 72
8
 73
4
 74
0
 40
0
 40
0
 40
0
 40
0
 40
1
 40
1
 40
1
 40
1
 10
-193.358555
 20
665.893130
 30
0.0
 10
-172.841661
 20
565.755440
 30
0.0
 10
-112.422412
 20
477.871303
 30
0.0
 10
-25.965272
 20
422.407609
 30
0.0
  0
SPLINE
  5
15c
100
AcDbEntity
  8
Layer_1
 62
7
100
AcDbSpline
 70
8
 71
3
 72
8
 73
4
 74
0
 40
0
 40
0
 40
0
 40
0
 40
1
 40
1
 40
1
 40
1
 10
-25.965272
 20
422.407609
 30
0.0
 10
55.242369
 20
370.436162
 30
0.0
 10
153.032904
 20
351.116091
 30
0.0
 10
247.454530
 20
368.389194
 30
0.0
  0
SPLINE
  5
15d
100
AcDbEntity
  8
Layer_1
 62
7
100
AcDbSpline
 70
8
 71
3
 72
8
 73
4
 74
0
 40
0
 40
0
 40
0
 40
0
 40
1
 40
1
 40
1
 40
1
 10
247.454530
 20
368.389194
 30
0.0
 10
162.360819
 20
354.854768
 30
0.0
 10
80.455145
 20
409.910462
 30
0.0
 10
61.772876
 20
495.158305
 30
0.0
  0
LWPOLYLINE
  5
15e
100
AcDbEntity
  8
Layer_1
 62
7
100
AcDbPolyline
 90
1
 70
1
 10
-157.734394
 20
784.961542
 30
0.0
  0
SPLINE
  5
15f
100
AcDbEntity
  8
Layer_1
 62
7
100
AcDbSpline
 70
8
 71
3
 72
8
 73
4
 74
0
 40
0
 40
0
 40
0
 40
0
 40
1
 40
1
 40
1
 40
1
 10
-66.749511
 20
852.701889
 30
0.0
 10
-110.955776
 20
843.013569
 30
0.0
 10
-147.050726
 20
816.324791
 30
0.0
 10
-169.671344
 20
781.006082
 30
0.0
  0
LWPOLYLINE
  5
160
100
AcDbEntity
  8
Layer_1
 62
7
100
AcDbPolyline
 90
4
 70
0
 10
61.772876
 20
495.158305
 30
0.0
 10
51.282570
 20
543.023920
 30
0.0
 10
-18.883896
 20
863.192196
 30
0.0
 10
-66.749511
 20
852.701889
 30
0.0
  0
SPLINE
  5
161
100
AcDbEntity
  8
Layer_1
 62
7
100
AcDbSpline
 70
8
 71
3
 72
8
 73
4
 74
0
 40
0
 40
0
 40
0
 40
0
 40
1
 40
1
 40
1
 40
1
 10
-179.901027
 20
777.246475
 30
0.0
 10
-200.095259
 20
743.536565
 30
0.0
 10
-208.238757
 20
702.608244
 30
0.0
 10
-200.133982
 20
661.476428
 30
0.0
  0
SPLINE
  5
162
100
AcDbEntity
  8
Layer_1
 62
7
100
AcDbSpline
 70
8
 71
3
 72
8
 73
4
 74
0
 40
0
 40
0
 40
0
 40
0
 40
1
 40
1
 40
1
 40
1
 10
-200.133982
 20
661.476428
 30
0.0
 10
-176.630606
 20
561.997325
 30
0.0
 10
-113.609305
 20
475.959988
 30
0.0
 10
-25.531636
 20
423.107520
 30
0.0
  0
SPLINE
  5
163
100
AcDbEntity
  8
Layer_1
 62
7
100
AcDbSpline
 70
8
 71
3
 72
8
 73
4
 74
0
 40
0
 40
0
 40
0
 40
0
 40
1
 40
1
 40
1
 40
1
 10
-25.531636
 20
423.107520
 30
0.0
 10
57.194410
 20
373.588695
 30
0.0
 10
155.519148
 20
357.202717
 30
0.0
 10
249.381784
 20
377.292755
 30
0.0
  0
SPLINE
  5
164
100
AcDbEntity
  8
Layer_1
 62
7
100
AcDbSpline
 70
8
 71
3
 72
8
 73
4
 74
0
 40
0
 40
0
 40
0
 40
0
 40
1
 40
1
 40
1
 40
1
 10
249.381784
 20
377.292755
 30
0.0
 10
164.731044
 20
361.218770
 30
0.0
 10
81.215011
 20
413.799580
 30
0.0
 10
59.990876
 20
498.450382
 30
0.0
  0
LWPOLYLINE
  5
165
100
AcDbEntity
  8
Layer_1
 62
7
100
AcDbPolyline
 90
1
 70
1
 10
-169.671344
 20
781.006082
 30
0.0
  0
SPLINE
  5
166
100
AcDbEntity
  8
Layer_1
 62
7
100
AcDbSpline
 70
8
 71
3
 72
8
 73
4
 74
0
 40
0
 40
0
 40
0
 40
0
 40
1
 40
1
 40
1
 40
1
 10
-79.170067
 20
851.989148
 30
0.0
 10
-123.066718
 20
840.982714
 30
0.0
 10
-158.347106
 20
813.226084
 30
0.0
 10
-179.901027
 20
777.246475
 30
0.0
  0
LWPOLYLINE
  5
167
100
AcDbEntity
  8
Layer_1
 62
7
100
AcDbPolyline
 90
4
 70
0
 10
59.990876
 20
498.450382
 30
0.0
 10
48.073344
 20
545.980754
 30
0.0
 10
-31.639696
 20
863.906681
 30
0.0
 10
-79.170067
 20
851.989148
 30
0.0
  0
SPLINE
  5
168
100
AcDbEntity
  8
Layer_1
 62
7
100
AcDbSpline
 70
8
 71
3
 72
8
 73
4
 74
0
 40
0
 40
0
 40
0
 40
0
 40
1
 40
1
 40
1
 40
1
 10
-188.756281
 20
773.707032
 30
0.0
 10
-208.061170
 20
739.480050
 30
0.0
 10
-215.130499
 20
698.352584
 30
0.0
 10
-205.951796
 20
657.447021
 30
0.0
  0
SPLINE
  5
169
100
AcDbEntity
  8
Layer_1
 62
7
100
AcDbSpline
 70
8
 71
3
 72
8
 73
4
 74
0
 40
0
 40
0
 40
0
 40
0
 40
1
 40
1
 40
1
 40
1
 10
-205.951796
 20
657.447021
 30
0.0
 10
-179.852415
 20
558.617256
 30
0.0
 10
-114.600516
 20
474.259108
 30
0.0
 10
-25.169515
 20
423.730357
 30
0.0
  0
SPLINE
  5
16a
100
AcDbEntity
  8
Layer_1
 62
7
100
AcDbSpline
 70
8
 71
3
 72
8
 73
4
 74
0
 40
0
 40
0
 40
0
 40
0
 40
1
 40
1
 40
1
 40
1
 10
-25.169515
 20
423.730357
 30
0.0
 10
58.824434
 20
376.394016
 30
0.0
 10
157.544412
 20
362.587495
 30
0.0
 10
250.848986
 20
385.127686
 30
0.0
  0
SPLINE
  5
16b
100
AcDbEntity
  8
Layer_1
 62
7
100
AcDbSpline
 70
8
 71
3
 72
8
 73
4
 74
0
 40
0
 40
0
 40
0
 40
0
 40
1
 40
1
 40
1
 40
1
 10
250.848986
 20
385.127686
 30
0.0
 10
166.648023
 20
366.843311
 30
0.0
 10
81.784205
 20
417.219907
 30
0.0
 10
58.351444
 20
501.286118
 30
0.0
  0
LWPOLYLINE
  5
16c
100
AcDbEntity
  8
Layer_1
 62
7
100
AcDbPolyline
 90
1
 70
1
 10
-179.901027
 20
777.246475
 30
0.0
  0
SPLINE
  5
16d
100
AcDbEntity
  8
Layer_1
 62
7
100
AcDbSpline
 70
8
 71
3
 72
8
 73
4
 74
0
 40
0
 40
0
 40
0
 40
0
 40
1
 40
1
 40
1
 40
1
 10
-90.016376
 20
851.060921
 30
0.0
 10
-133.609868
 20
838.909178
 30
0.0
 10
-168.151583
 20
810.238527
 30
0.0
 10
-188.756281
 20
773.707032
 30
0.0
  0
LWPOLYLINE
  5
16e
100
AcDbEntity
  8
Layer_1
 62
7
100
AcDbPolyline
 90
4
 70
0
 10
58.351444
 20
501.286118
 30
0.0
 10
45.193796
 20
548.488236
 30
0.0
 10
-42.814257
 20
864.218569
 30
0.0
 10
-90.016376
 20
851.060921
 30
0.0
  0
SPLINE
  5
16f
100
AcDbEntity
  8
Layer_1
 62
7
100
AcDbSpline
 70
8
 71
3
 72
8
 73
4
 74
0
 40
0
 40
0
 40
0
 40
0
 40
1
 40
1
 40
1
 40
1
 10
-196.490478
 20
770.392410
 30
0.0
 10
-214.999644
 20
735.728656
 30
0.0
 10
-221.117128
 20
694.448875
 30
0.0
 10
-210.996041
 20
653.766235
 30
0.0
  0
SPLINE
  5
170
100
AcDbEntity
  8
Layer_1
 62
7
100
AcDbSpline
 70
8
 71
3
 72
8
 73
4
 74
0
 40
0
 40
0
 40
0
 40
0
 40
1
 40
1
 40
1
 40
1
 10
-210.996041
 20
653.766235
 30
0.0
 10
-182.620861
 20
555.565676
 30
0.0
 10
-115.437872
 20
472.737217
 30
0.0
 10
-24.863620
 20
424.287616
 30
0.0
  0
SPLINE
  5
171
100
AcDbEntity
  8
Layer_1
 62
7
100
AcDbSpline
 70
8
 71
3
 72
8
 73
4
 74
0
 40
0
 40
0
 40
0
 40
0
 40
1
 40
1
 40
1
 40
1
 10
-24.863620
 20
424.287616
 30
0.0
 10
60.201292
 20
378.903990
 30
0.0
 10
159.213835
 20
367.381379
 30
0.0
 10
251.972886
 20
392.070697
 30
0.0
  0
SPLINE
  5
172
100
AcDbEntity
  8
Layer_1
 62
7
100
AcDbSpline
 70
8
 71
3
 72
8
 73
4
 74
0
 40
0
 40
0
 40
0
 40
0
 40
1
 40
1
 40
1
 40
1
 10
251.972886
 20
392.070697
 30
0.0
 10
168.216717
 20
371.846333
 30
0.0
 10
82.211944
 20
420.249312
 30
0.0
 10
56.843680
 20
503.751847
 30
0.0
  0
LWPOLYLINE
  5
173
100
AcDbEntity
  8
Layer_1
 62
7
100
AcDbPolyline
 90
1
 70
1
 10
-188.756281
 20
773.707032
 30
0.0
  0
SPLINE
  5
174
100
AcDbEntity
  8
Layer_1
 62
7
100
AcDbSpline
 70
8
 71
3
 72
8
 73
4
 74
0
 40
0
 40
0
 40
0
 40
0
 40
1
 40
1
 40
1
 40
1
 10
-99.563629
 20
850.006349
 30
0.0
 10
-142.864811
 20
836.850928
 30
0.0
 10
-176.735079
 20
807.390084
 30
0.0
 10
-196.490478
 20
770.392410
 30
0.0
  0
LWPOLYLINE
  5
175
100
AcDbEntity
  8
Layer_1
 62
7
100
AcDbPolyline
 90
4
 70
0
 10
56.843680
 20
503.751847
 30
0.0
 10
42.599271
 20
550.637459
 30
0.0
 10
-52.678017
 20
864.250758
 30
0.0
 10
-99.563629
 20
850.006349
 30
0.0
  0
SPLINE
  5
176
100
AcDbEntity
  8
Layer_1
 62
7
100
AcDbSpline
 70
8
 71
3
 72
8
 73
4
 74
0
 40
0
 40
0
 40
0
 40
0
 40
1
 40
1
 40
1
 40
1
 10
-203.299440
 20
767.296805
 30
0.0
 10
-221.092994
 20
732.260332
 30
0.0
 10
-226.361640
 20
690.863650
 30
0.0
 10
-215.407397
 20
650.397390
 30
0.0
  0
SPLINE
  5
177
100
AcDbEntity
  8
Layer_1
 62
7
100
AcDbSpline
 70
8
 71
3
 72
8
 73
4
 74
0
 40
0
 40
0
 40
0
 40
0
 40
1
 40
1
 40
1
 40
1
 10
-215.407397
 20
650.397390
 30
0.0
 10
-185.021963
 20
552.800128
 30
0.0
 10
-116.152518
 20
471.368519
 30
0.0
 10
-24.602602
 20
424.788786
 30
0.0
  0
SPLINE
  5
178
100
AcDbEntity
  8
Layer_1
 62
7
100
AcDbSpline
 70
8
 71
3
 72
8
 73
4
 74
0
 40
0
 40
0
 40
0
 40
0
 40
1
 40
1
 40
1
 40
1
 10
-24.602602
 20
424.788786
 30
0.0
 10
61.376186
 20
381.161265
 30
0.0
 10
160.604436
 20
371.673990
 30
0.0
 10
252.837015
 20
398.262616
 30
0.0
  0
SPLINE
  5
179
100
AcDbEntity
  8
Layer_1
 62
7
100
AcDbSpline
 70
8
 71
3
 72
8
 73
4
 74
0
 40
0
 40
0
 40
0
 40
0
 40
1
 40
1
 40
1
 40
1
 10
252.837015
 20
398.262616
 30
0.0
 10
169.513746
 20
376.322849
 30
0.0
 10
82.533303
 20
422.949789
 30
0.0
 10
55.455928
 20
505.913865
 30
0.0
  0
LWPOLYLINE
  5
17a
100
AcDbEntity
  8
Layer_1
 62
7
100
AcDbPolyline
 90
1
 70
1
 10
-196.490478
 20
770.392410
 30
0.0
  0
SPLINE
  5
17b
100
AcDbEntity
  8
Layer_1
 62
7
100
AcDbSpline
 70
8
 71
3
 72
8
 73
4
 74
0
 40
0
 40
0
 40
0
 40
0
 40
1
 40
1
 40
1
 40
1
 10
-108.027643
 20
848.884045
 30
0.0
 10
-151.049592
 20
834.842346
 30
0.0
 10
-184.307835
 20
804.692294
 30
0.0
 10
-203.299440
 20
767.296805
 30
0.0
  0
LWPOLYLINE
  5
17c
100
AcDbEntity
  8
Layer_1
 62
7
100
AcDbPolyline
 90
4
 70
0
 10
55.455928
 20
505.913865
 30
0.0
 10
40.251875
 20
552.497129
 30
0.0
 10
-61.444379
 20
864.088098
 30
0.0
 10
-108.027643
 20
848.884045
 30
0.0
  0
SPLINE
  5
17d
100
AcDbEntity
  8
Layer_1
 62
7
100
AcDbSpline
 70
8
 71
3
 72
8
 73
4
 74
0
 40
0
 40
0
 40
0
 40
0
 40
1
 40
1
 40
1
 40
1
 10
-209.336670
 20
764.409058
 30
0.0
 10
-226.483573
 20
729.051614
 30
0.0
 10
-230.990837
 20
687.565127
 30
0.0
 10
-219.295043
 20
647.306934
 30
0.0
  0
SPLINE
  5
17e
100
AcDbEntity
  8
Layer_1
 62
7
100
AcDbSpline
 70
8
 71
3
 72
8
 73
4
 74
0
 40
0
 40
0
 40
0
 40
0
 40
1
 40
1
 40
1
 40
1
 10
-219.295043
 20
647.306934
 30
0.0
 10
-187.121790
 20
550.284346
 30
0.0
 10
-116.767997
 20
470.131667
 30
0.0
 10
-24.377818
 20
425.241645
 30
0.0
  0
SPLINE
  5
17f
100
AcDbEntity
  8
Layer_1
 62
7
100
AcDbSpline
 70
8
 71
3
 72
8
 73
4
 74
0
 40
0
 40
0
 40
0
 40
0
 40
1
 40
1
 40
1
 40
1
 10
-24.377818
 20
425.241645
 30
0.0
 10
62.387937
 20
383.200988
 30
0.0
 10
161.773734
 20
375.538223
 30
0.0
 10
253.502295
 20
403.816754
 30
0.0
  0
SPLINE
  5
180
100
AcDbEntity
  8
Layer_1
 62
7
100
AcDbSpline
 70
8
 71
3
 72
8
 73
4
 74
0
 40
0
 40
0
 40
0
 40
0
 40
1
 40
1
 40
1
 40
1
 10
253.502295
 20
403.816754
 30
0.0
 10
170.596137
 20
380.349969
 30
0.0
 10
82.773794
 20
425.371136
 30
0.0
 10
54.176866
 20
507.823779
 30
0.0
  0
LWPOLYLINE
  5
181
100
AcDbEntity
  8
Layer_1
 62
7
100
AcDbPolyline
 90
1
 70
1
 10
-203.299440
 20
767.296805
 30
0.0
  0
SPLINE
  5
182
100
AcDbEntity
  8
Layer_1
 62
7
100
AcDbSpline
 70
8
 71
3
 72
8
 73
4
 74
0
 40
0
 40
0
 40
0
 40
0
 40
1
 40
1
 40
1
 40
1
 10
-115.579776
 20
847.732756
 30
0.0
 10
-158.336509
 20
832.903076
 30
0.0
 10
-191.035257
 20
802.147129
 30
0.0
 10
-209.336670
 20
764.409058
 30
0.0
  0
LWPOLYLINE
  5
183
100
AcDbEntity
  8
Layer_1
 62
7
100
AcDbPolyline
 90
4
 70
0
 10
54.176866
 20
507.823779
 30
0.0
 10
38.119604
 20
554.119871
 30
0.0
 10
-69.283684
 20
863.790018
 30
0.0
 10
-115.579776
 20
847.732756
 30
0.0
  0
SPLINE
  5
184
100
AcDbEntity
  8
Layer_1
 62
7
100
AcDbSpline
 70
8
 71
3
 72
8
 73
4
 74
0
 40
0
 40
0
 40
0
 40
0
 40
1
 40
1
 40
1
 40
1
 10
-214.723998
 20
761.715653
 30
0.0
 10
-231.283958
 20
726.079537
 30
0.0
 10
-235.104671
 20
684.524199
 30
0.0
 10
-222.744850
 20
644.464887
 30
0.0
  0
SPLINE
  5
185
100
AcDbEntity
  8
Layer_1
 62
7
100
AcDbSpline
 70
8
 71
3
 72
8
 73
4
 74
0
 40
0
 40
0
 40
0
 40
0
 40
1
 40
1
 40
1
 40
1
 10
-222.744850
 20
644.464887
 30
0.0
 10
-188.971831
 20
547.987513
 30
0.0
 10
-117.302416
 20
469.009017
 30
0.0
 10
-24.182660
 20
425.652705
 30
0.0
  0
SPLINE
  5
186
100
AcDbEntity
  8
Layer_1
 62
7
100
AcDbSpline
 70
8
 71
3
 72
8
 73
4
 74
0
 40
0
 40
0
 40
0
 40
0
 40
1
 40
1
 40
1
 40
1
 10
-24.182660
 20
425.652705
 30
0.0
 10
63.266331
 20
385.052375
 30
0.0
 10
162.765236
 20
379.033895
 30
0.0
 10
254.013702
 20
408.825194
 30
0.0
  0
SPLINE
  5
187
100
AcDbEntity
  8
Layer_1
 62
7
100
AcDbSpline
 70
8
 71
3
 72
8
 73
4
 74
0
 40
0
 40
0
 40
0
 40
0
 40
1
 40
1
 40
1
 40
1
 10
254.013702
 20
408.825194
 30
0.0
 10
171.506877
 20
383.990853
 30
0.0
 10
82.952163
 20
427.553816
 30
0.0
 10
52.995878
 20
509.522367
 30
0.0
  0
LWPOLYLINE
  5
188
100
AcDbEntity
  8
Layer_1
 62
7
100
AcDbPolyline
 90
1
 70
1
 10
-209.336670
 20
764.409058
 30
0.0
  0
SPLINE
  5
189
100
AcDbEntity
  8
Layer_1
 62
7
100
AcDbSpline
 70
8
 71
3
 72
8
 73
4
 74
0
 40
0
 40
0
 40
0
 40
0
 40
1
 40
1
 40
1
 40
1
 10
-122.357590
 20
846.578130
 30
0.0
 10
-164.863284
 20
831.043540
 30
0.0
 10
-197.049045
 20
799.751159
 30
0.0
 10
-214.723998
 20
761.715653
 30
0.0
  0
LWPOLYLINE
  5
18a
100
AcDbEntity
  8
Layer_1
 62
7
100
AcDbPolyline
 90
4
 70
0
 10
52.995878
 20
509.522367
 30
0.0
 10
36.175354
 20
555.546640
 30
0.0
 10
-76.333316
 20
863.398653
 30
0.0
 10
-122.357590
 20
846.578130
 30
0.0
  0
SPLINE
  5
18b
100
AcDbEntity
  8
Layer_1
 62
7
100
AcDbSpline
 70
8
 71
3
 72
8
 73
4
 74
0
 40
0
 40
0
 40
0
 40
0
 40
1
 40
1
 40
1
 40
1
 10
-219.559284
 20
759.202300
 30
0.0
 10
-235.584297
 20
723.322444
 30
0.0
 10
-238.782939
 20
681.714599
 30
0.0
 10
-225.825236
 20
641.844665
 30
0.0
  0
SPLINE
  5
18c
100
AcDbEntity
  8
Layer_1
 62
7
100
AcDbSpline
 70
8
 71
3
 72
8
 73
4
 74
0
 40
0
 40
0
 40
0
 40
0
 40
1
 40
1
 40
1
 40
1
 10
-225.825236
 20
641.844665
 30
0.0
 10
-190.612751
 20
545.883310
 30
0.0
 10
-117.769883
 20
467.985782
 30
0.0
 10
-24.011959
 20
426.027337
 30
0.0
  0
SPLINE
  5
18d
100
AcDbEntity
  8
Layer_1
 62
7
100
AcDbSpline
 70
8
 71
3
 72
8
 73
4
 74
0
 40
0
 40
0
 40
0
 40
0
 40
1
 40
1
 40
1
 40
1
 10
-24.011959
 20
426.027337
 30
0.0
 10
64.034605
 20
386.739735
 30
0.0
 10
163.612411
 20
382.210374
 30
0.0
 10
254.405007
 20
413.363364
 30
0.0
  0
SPLINE
  5
18e
100
AcDbEntity
  8
Layer_1
 62
7
100
AcDbSpline
 70
8
 71
3
 72
8
 73
4
 74
0
 40
0
 40
0
 40
0
 40
0
 40
1
 40
1
 40
1
 40
1
 10
254.405007
 20
413.363364
 30
0.0
 10
172.278920
 20
387.297547
 30
0.0
 10
83.082437
 20
429.530910
 30
0.0
 10
51.903302
 20
511.042162
 30
0.0
  0
LWPOLYLINE
  5
18f
100
AcDbEntity
  8
Layer_1
 62
7
100
AcDbPolyline
 90
1
 70
1
 10
-214.723998
 20
761.715653
 30
0.0
  0
SPLINE
  5
190
100
AcDbEntity
  8
Layer_1
 62
7
100
AcDbSpline
 70
8
 71
3
 72
8
 73
4
 74
0
 40
0
 40
0
 40
0
 40
0
 40
1
 40
1
 40
1
 40
1
 10
-128.472703
 20
845.437030
 30
0.0
 10
-170.741253
 20
829.268318
 30
0.0
 10
-202.455298
 20
797.497958
 30
0.0
 10
-219.559284
 20
759.202300
 30
0.0
  0
LWPOLYLINE
  5
191
100
AcDbEntity
  8
Layer_1
 62
7
100
AcDbPolyline
 90
4
 70
0
 10
51.903302
 20
511.042162
 30
0.0
 10
34.396165
 20
556.809661
 30
0.0
 10
-82.705204
 20
862.944167
 30
0.0
 10
-128.472703
 20
845.437030
 30
0.0
  0
LWPOLYLINE
  5
192
100
AcDbEntity
  8
Layer_1
 62
7
100
AcDbPolyline
 90
1
 70
1
 10
-219.559284
 20
759.202300
 30
0.0
  0
ENDSEC
  0
SECTION
  2
OBJECTS
  0
DICTIONARY
  5
C
330
0
100
AcDbDictionary
  3
ACAD_GROUP
350
D
  3
ACAD_MLINESTYLE
350
17
  0
DICTIONARY
  5
D
330
C
100
AcDbDictionary
  0
DICTIONARY
  5
1A
330
C
100
AcDbDictionary
  0
DICTIONARY
  5
17
330
C
100
AcDbDictionary
  3
STANDARD
350
18
  0
DICTIONARY
  5
19
330
C
100
AcDbDictionary
  0
ENDSEC
  0
EOF
