<?xml version="1.0" encoding="UTF-8"?>
<svg width="210mm" height="297mm" version="1.1" viewBox="0 0 210 297" xmlns="http://www.w3.org/2000/svg" xmlns:xlink="http://www.w3.org/1999/xlink">
 <defs>
  <linearGradient id="c">
   <stop stop-color="#0f0" offset="0"/>
   <stop stop-color="#008000" offset="1"/>
  </linearGradient>
  <linearGradient id="a" x1="-158.19" x2="434.6" y1="846.84" y2="254.05" gradientUnits="userSpaceOnUse" xlink:href="#c"/>
  <linearGradient id="b" x1="46.022" x2="165.74" y1="163.83" y2="131.75" gradientTransform="matrix(.256 0 0 .256 78.35 109.62)" gradientUnits="userSpaceOnUse">
   <stop stop-color="#0f0" offset="0"/>
   <stop stop-color="#008000" offset="1"/>
  </linearGradient>
 </defs>
 <g>
  <g transform="matrix(0 .256 -.256 0 144.03 119.07)" fill="url(#a)" fill-rule="evenodd" stroke-width="2.8954">
   <path transform="scale(.26458)" d="m233.77 156.99c-52.394 2e-5 -104.79 18.73-146.28 56.184-97.679 95.047-152.91 226.08-153.01 363.04 0.04462 128.55 48.675 252.24 135.97 345.84-76.388-85.809-73.472-217.36 8.8086-299.64l46.199-46.199 309.02-309.02-46.199-46.199c-42.667-42.667-98.589-64.002-154.51-64.002z"/>
   <path transform="matrix(0 .26458 -.26458 0 267.41 37.5)" d="m233.77 156.99c-52.394 2e-5 -104.79 18.73-146.28 56.184-97.679 95.047-152.91 226.08-153.01 363.04 0.04462 128.55 48.675 252.24 135.97 345.84-76.388-85.809-73.472-217.36 8.8086-299.64l46.199-46.199 309.02-309.02-46.199-46.199c-42.667-42.667-98.589-64.002-154.51-64.002z"/>
   <path transform="matrix(-.26458 0 0 -.26458 229.91 304.91)" d="m233.77 156.99c-52.394 2e-5 -104.79 18.73-146.28 56.184-97.679 95.047-152.91 226.08-153.01 363.04 0.04462 128.55 48.675 252.24 135.97 345.84-76.388-85.809-73.472-217.36 8.8086-299.64l46.199-46.199 309.02-309.02-46.199-46.199c-42.667-42.667-98.589-64.002-154.51-64.002z"/>
   <path transform="matrix(0 -.26458 .26458 0 -37.5 267.41)" d="m233.77 156.99c-52.394 2e-5 -104.79 18.73-146.28 56.184-97.679 95.047-152.91 226.08-153.01 363.04 0.04462 128.55 48.675 252.24 135.97 345.84-76.388-85.809-73.472-217.36 8.8086-299.64l46.199-46.199 309.02-309.02-46.199-46.199c-42.667-42.667-98.589-64.002-154.51-64.002z"/>
  </g>
  <path transform="matrix(.081761 .25163 -.25163 .081761 123.78 115.12)" d="m-409.18 196.3c-6.3164 52.012 5.9604 106.28 38.139 151.99 82.578 108.43 206 179.05 341.95 195.66 127.62 15.453 256.27-17.911 359.71-93.285-94.393 65.486-224.64 46.732-296.4-44.868l-40.293-51.432-269.51-344.02-51.432 40.293c-47.5 37.212-75.421 90.155-82.162 145.67z" display="none" fill="url(#a)" fill-rule="evenodd" stroke-width="2.8954"/>
  <path transform="matrix(.13229 .22914 -.22914 .13229 114.96 86.387)" d="m-409.18 196.3c-6.3164 52.012 5.9604 106.28 38.139 151.99 82.578 108.43 206 179.05 341.95 195.66 127.62 15.453 256.27-17.911 359.71-93.285-94.393 65.486-224.64 46.732-296.4-44.868l-40.293-51.432-269.51-344.02-51.432 40.293c-47.5 37.212-75.421 90.155-82.162 145.67z" display="none" fill="url(#a)" fill-rule="evenodd" stroke-width="2.8954"/>
  <path transform="matrix(.16497 .20686 -.20686 .16497 105.08 67.299)" d="m-409.18 196.3c-6.3164 52.012 5.9604 106.28 38.139 151.99 82.578 108.43 206 179.05 341.95 195.66 127.62 15.453 256.27-17.911 359.71-93.285-94.393 65.486-224.64 46.732-296.4-44.868l-40.293-51.432-269.51-344.02-51.432 40.293c-47.5 37.212-75.421 90.155-82.162 145.67z" display="none" fill="url(#a)" fill-rule="evenodd" stroke-width="2.8954"/>
  <path transform="matrix(.18709 .18709 -.18709 .18709 95.861 54.068)" d="m-409.18 196.3c-6.3164 52.012 5.9604 106.28 38.139 151.99 82.578 108.43 206 179.05 341.95 195.66 127.62 15.453 256.27-17.911 359.71-93.285-94.393 65.486-224.64 46.732-296.4-44.868l-40.293-51.432-269.51-344.02-51.432 40.293c-47.5 37.212-75.421 90.155-82.162 145.67z" display="none" fill="url(#a)" fill-rule="evenodd" stroke-width="2.8954"/>
  <path transform="matrix(.20268 .17007 -.17007 .20268 87.701 44.54)" d="m-409.18 196.3c-6.3164 52.012 5.9604 106.28 38.139 151.99 82.578 108.43 206 179.05 341.95 195.66 127.62 15.453 256.27-17.911 359.71-93.285-94.393 65.486-224.64 46.732-296.4-44.868l-40.293-51.432-269.51-344.02-51.432 40.293c-47.5 37.212-75.421 90.155-82.162 145.67z" display="none" fill="url(#a)" fill-rule="evenodd" stroke-width="2.8954"/>
  <path transform="matrix(.21405 .15552 -.15552 .21405 80.594 37.452)" d="m-409.18 196.3c-6.3164 52.012 5.9604 106.28 38.139 151.99 82.578 108.43 206 179.05 341.95 195.66 127.62 15.453 256.27-17.911 359.71-93.285-94.393 65.486-224.64 46.732-296.4-44.868l-40.293-51.432-269.51-344.02-51.432 40.293c-47.5 37.212-75.421 90.155-82.162 145.67z" display="none" fill="url(#a)" fill-rule="evenodd" stroke-width="2.8954"/>
  <path transform="matrix(.22258 .14304 -.14304 .22258 74.423 32.033)" d="m-409.18 196.3c-6.3164 52.012 5.9604 106.28 38.139 151.99 82.578 108.43 206 179.05 341.95 195.66 127.62 15.453 256.27-17.911 359.71-93.285-94.393 65.486-224.64 46.732-296.4-44.868l-40.293-51.432-269.51-344.02-51.432 40.293c-47.5 37.212-75.421 90.155-82.162 145.67z" display="none" fill="url(#a)" fill-rule="evenodd" stroke-width="2.8954"/>
  <path transform="matrix(.22914 .13229 -.13229 .22914 69.051 27.792)" d="m-409.18 196.3c-6.3164 52.012 5.9604 106.28 38.139 151.99 82.578 108.43 206 179.05 341.95 195.66 127.62 15.453 256.27-17.911 359.71-93.285-94.393 65.486-224.64 46.732-296.4-44.868l-40.293-51.432-269.51-344.02-51.432 40.293c-47.5 37.212-75.421 90.155-82.162 145.67z" display="none" fill="url(#a)" fill-rule="evenodd" stroke-width="2.8954"/>
  <path transform="matrix(.23428 .12296 -.12296 .23428 64.353 24.407)" d="m-409.18 196.3c-6.3164 52.012 5.9604 106.28 38.139 151.99 82.578 108.43 206 179.05 341.95 195.66 127.62 15.453 256.27-17.911 359.71-93.285-94.393 65.486-224.64 46.732-296.4-44.868l-40.293-51.432-269.51-344.02-51.432 40.293c-47.5 37.212-75.421 90.155-82.162 145.67z" display="none" fill="url(#a)" fill-rule="evenodd" stroke-width="2.8954"/>
  <path transform="matrix(.23838 .1148 -.1148 .23838 60.219 21.658)" d="m-409.18 196.3c-6.3164 52.012 5.9604 106.28 38.139 151.99 82.578 108.43 206 179.05 341.95 195.66 127.62 15.453 256.27-17.911 359.71-93.285-94.393 65.486-224.64 46.732-296.4-44.868l-40.293-51.432-269.51-344.02-51.432 40.293c-47.5 37.212-75.421 90.155-82.162 145.67z" display="none" fill="url(#a)" fill-rule="evenodd" stroke-width="2.8954"/>
  <path transform="matrix(.24171 .10762 -.10762 .24171 56.562 19.392)" d="m-409.18 196.3c-6.3164 52.012 5.9604 106.28 38.139 151.99 82.578 108.43 206 179.05 341.95 195.66 127.62 15.453 256.27-17.911 359.71-93.285-94.393 65.486-224.64 46.732-296.4-44.868l-40.293-51.432-269.51-344.02-51.432 40.293c-47.5 37.212-75.421 90.155-82.162 145.67z" display="none" fill="url(#a)" fill-rule="evenodd" stroke-width="2.8954"/>
  <path transform="matrix(.24444 .10125 -.10125 .24444 53.308 17.5)" d="m-409.18 196.3c-6.3164 52.012 5.9604 106.28 38.139 151.99 82.578 108.43 206 179.05 341.95 195.66 127.62 15.453 256.27-17.911 359.71-93.285-94.393 65.486-224.64 46.732-296.4-44.868l-40.293-51.432-269.51-344.02-51.432 40.293c-47.5 37.212-75.421 90.155-82.162 145.67z" display="none" fill="url(#a)" fill-rule="evenodd" stroke-width="2.8954"/>
  <path transform="matrix(.24672 .095579 -.095579 .24672 50.396 15.902)" d="m-409.18 196.3c-6.3164 52.012 5.9604 106.28 38.139 151.99 82.578 108.43 206 179.05 341.95 195.66 127.62 15.453 256.27-17.911 359.71-93.285-94.393 65.486-224.64 46.732-296.4-44.868l-40.293-51.432-269.51-344.02-51.432 40.293c-47.5 37.212-75.421 90.155-82.162 145.67z" display="none" fill="url(#a)" fill-rule="evenodd" stroke-width="2.8954"/>
  <path transform="matrix(.24863 .090493 -.090493 .24863 47.777 14.538)" d="m-409.18 196.3c-6.3164 52.012 5.9604 106.28 38.139 151.99 82.578 108.43 206 179.05 341.95 195.66 127.62 15.453 256.27-17.911 359.71-93.285-94.393 65.486-224.64 46.732-296.4-44.868l-40.293-51.432-269.51-344.02-51.432 40.293c-47.5 37.212-75.421 90.155-82.162 145.67z" display="none" fill="url(#a)" fill-rule="evenodd" stroke-width="2.8954"/>
  <path transform="matrix(.25025 .08591 -.08591 .25025 45.411 13.363)" d="m-409.18 196.3c-6.3164 52.012 5.9604 106.28 38.139 151.99 82.578 108.43 206 179.05 341.95 195.66 127.62 15.453 256.27-17.911 359.71-93.285-94.393 65.486-224.64 46.732-296.4-44.868l-40.293-51.432-269.51-344.02-51.432 40.293c-47.5 37.212-75.421 90.155-82.162 145.67z" display="none" fill="url(#a)" fill-rule="evenodd" stroke-width="2.8954"/>
  <path transform="matrix(.25163 .081761 -.081761 .25163 43.263 12.344)" d="m-409.18 196.3c-6.3164 52.012 5.9604 106.28 38.139 151.99 82.578 108.43 206 179.05 341.95 195.66 127.62 15.453 256.27-17.911 359.71-93.285-94.393 65.486-224.64 46.732-296.4-44.868l-40.293-51.432-269.51-344.02-51.432 40.293c-47.5 37.212-75.421 90.155-82.162 145.67z" display="none" fill="url(#a)" fill-rule="evenodd" stroke-width="2.8954"/>
  <path transform="matrix(.25283 .077987 -.077987 .25283 41.306 11.452)" d="m-409.18 196.3c-6.3164 52.012 5.9604 106.28 38.139 151.99 82.578 108.43 206 179.05 341.95 195.66 127.62 15.453 256.27-17.911 359.71-93.285-94.393 65.486-224.64 46.732-296.4-44.868l-40.293-51.432-269.51-344.02-51.432 40.293c-47.5 37.212-75.421 90.155-82.162 145.67z" display="none" fill="url(#a)" fill-rule="evenodd" stroke-width="2.8954"/>
  <text x="91.240952" y="150.02481" fill="url(#b)" font-family="'Noto Sans Mono'" font-size="6.5024px" stroke-width=".067734" style="font-variant-caps:normal;font-variant-east-asian:normal;font-variant-ligatures:normal;font-variant-numeric:normal;line-height:1.25" xml:space="preserve"><tspan x="91.240952" y="150.02481" fill="url(#b)" font-family="'Noto Sans Mono'" font-size="6.5024px" stroke-width=".067734" style="font-variant-caps:normal;font-variant-east-asian:normal;font-variant-ligatures:normal;font-variant-numeric:normal">eMerger</tspan></text>
 </g>
</svg>
